<svg xmlns="http://www.w3.org/2000/svg" width="666.667" height="666.667" viewBox="0 0 500 500" preserveAspectRatio="xMidYMid meet"  xmlns:v="https://vecta.io/nano"><path d="M239 25.6c-18.9 3-35.1 10.5-46.6 21.6l-4.1 3.9-4.6-2c-12.8-5.5-26.6-4.8-35.7 1.7-4.7 3.4-10.4 9.5-14.2 15.1-2.6 3.9-12.6 23.2-18 34.9-2.8 6-20.4 18.3-28.5 19.8-6.4 1.2-3.1 2.1 7.7 2 6-.1 11 0 11 .1 0 .6-9.8 22.3-11.1 24.6-.5 1-2 3.7-3.2 6-1.1 2.2-5.7 7.6-10.1 12l-8 7.9 4.9-2.3c6.8-3.2 14.6-9.1 20.5-15.6l4.9-5.5-1.5 4.9c-.8 2.6-1.7 6.1-2 7.8-.2 1.6-.7 3.7-.9 4.5-.9 3-1.7 12.8-1.9 23.2-.2 10.2-.3 11-3.9 17.8-3.5 6.7-3.6 7.1-1.5 6.4 4-1.2 10.3-4.6 11.5-6.3 2.4-3.4 2.2-.1-.8 8.5-1.6 4.9-3.4 9.8-3.9 10.9-1.3 3.2-3 8.8-2.7 9.1.1.2 1.7-1 3.4-2.6 1.8-1.7 3.4-3 3.6-3 .3 0 .5 1.9.5 4.2.1 8.6 2.8 16.6 7.4 22.5.5.7 2.5 4 4.4 7.5 1.8 3.5 3.4 5.7 3.4 5 0-2.5 2.1 0 7.7 9.6 3.1 5.3 7 11 8.7 12.5 2.8 2.7 3.4 2.8 8.3 2.2 5.2-.6 5.3-.6 5.3 1.9 0 3.3-.1 2.7 2.1 8.8 1 2.9 1.9 6 1.9 7 0 .9.3 1.8.8 2 .4.2 1.8 2.5 3.2 5.3 3.8 7.6 12.7 18.9 24.4 31 10.7 11 10.7 11 8.4 12.5-3.6 2.3-6.6 5.9-11.5 13.5-5.4 8.2-13.7 19-17.3 22.3-1.4 1.3-5.7 4.1-9.6 6.3-7.6 4.2-8.1 4.9-8 11.6.1 4.6.3 4.4-8.1 5.8-1.8.3-4.5.7-6 .9-1.6.3-4.8.8-7.3 1.1-10 1.4-28.2 5.7-39.6 9.4-10.3 3.3-16.9 6.2-33.4 14.7-1.9 1-4.1 5.2-9.8 18.6l-10.1 25-2.9 7.8h443.6l-.9-3.8-1.4-5.7c-1.7-7.2-8.6-24.9-13.4-34.1-5.7-10.8-5.7-10.9-12.1-14-6.3-3.2-24.1-9.3-31.7-10.9-1-.2-4.7-1-8.3-1.9-6.9-1.6-18.9-3.6-37.5-6.2-2.7-.4-5.5-.7-6-.7-.7 0-.9-1.8-.5-4.6.5-4.4.3-4.7-3.2-7.3-4.1-3-9.9-9.8-20.6-24-7.9-10.5-19.4-21.8-22.3-21.8-1 0-2.1-.5-2.5-1.1-.3-.6-1.5-.8-2.6-.5-2.3.5-2.3.6 11.2-13.3 6.4-6.6 12.8-13.7 15.7-17.6 2.3-2.9 9.3-14.5 10.8-17.7.9-2 2.7-7.4 3.9-12l2.3-8.3h5.1c6.4 0 8.6-1.9 14.8-13.1 2.5-4.5 5.7-9.4 7-11 1.4-1.6 3.8-4.5 5.4-6.4l3-3.4v4.9c.1 4.1.3 4.7 1.1 3.1 1.8-3 4.9-12.2 5.5-16.3l1.4-9.8c.6-3.4.7-11.4.4-17.9-.5-9.7-.3-12 .9-13.4 3.2-3.5 5.8-11.6 6-18.2.1-6.3-.7-14.3-1.6-15.8-.3-.4-1.2-3.2-2.1-6.2l-1.6-5.5 2 2.5c6.8 8.4 10.4 22.2 10.3 40 0 8.1.5 7.5 3.1-3.7 2-8.7 1.8-20.6-.4-29-1.7-6.2-7.9-19-9.9-20.3-.5-.3-1.4-1.6-2.1-2.9-1.1-2.2-.9-2.1 2.6.7 2.2 1.7 6.5 4.5 9.6 6.2 5.8 3.1 18.8 8.3 18.8 7.5 0-.2-4.3-3.8-9.6-8s-10.4-8.4-11.3-9.3c-.9-1-3.9-3.7-6.7-6.2-6.5-6-17.3-17.7-20.4-22l-2.4-3.5 3.4 2.6c13.7 10.2 19.7 13.5 26.3 14.3 5 .7 5.3-.6.7-3.4-2.1-1.3-6.7-5.6-10.2-9.4-3.5-3.9-9.9-10.6-14.3-15.1-4.4-4.4-9.6-10-11.5-12.5s-3.9-4.8-4.5-5.2c-1.6-1.2-.1-.9 4.5.7s12.3 1.9 15.5.5c1.1-.5 1.4-.9.8-1.1-6.1-.9-15.4-5.1-22.8-10.2C364.5 76.6 347 63 346 62c-1.2-1.3-12.2-9.2-19-13.8-16.1-10.7-36.4-19.4-50.7-21.6l-6.8-1.2c-6.2-1.1-23.3-1-30.5.2z"/></svg>